<?xml version="1.0" encoding="utf-8"?>
<!-- Generator: Adobe Illustrator 19.2.1, SVG Export Plug-In . SVG Version: 6.00 Build 0)  -->
<!DOCTYPE svg PUBLIC "-//W3C//DTD SVG 1.1//EN" "http://www.w3.org/Graphics/SVG/1.1/DTD/svg11.dtd">
<svg version="1.1" id="Layer_1" xmlns="http://www.w3.org/2000/svg" xmlns:xlink="http://www.w3.org/1999/xlink" x="0px" y="0px"
	 viewBox="0 0 480 288" style="enable-background:new 0 0 480 288;" xml:space="preserve">
<style type="text/css">
	.st0{fill:#FFFFFF;}
	.st1{fill:#2EA048;}
	.st2{fill:#515151;}
	.st3{fill:#4464AF;}
</style>
<rect class="st0" width="480" height="288"/>
<g>
	<path class="st0" d="M180.9,105.3c0-29,23.5-52.4,52.7-52.4c29.2,0,52.6,23.6,52.6,53c-0.1,29.2-24.3,53-54,52.3
		C203.1,157.5,180.5,133.3,180.9,105.3z"/>
	<path class="st1" d="M178.9,105.3c0-30.1,24.5-54.4,54.7-54.4c30.3,0,54.7,24.5,54.6,55.1c-0.1,30.3-25.2,55.1-56.1,54.3
		C201.9,159.5,178.4,134.4,178.9,105.3z M218.5,119.7c-1-0.1-1.7-0.1-2.5-0.2c-7-0.4-12.6-5.7-13.4-12.7c-0.7-6.6,3.8-13,10.4-14.8
		c3.4-0.9,6.8-0.5,10.4-0.5c0,15.5,0,30.9,0,46.1c2.7,0,5.1,0,7.5,0c0-18,0-35.9,0-53.9c-4.8,0-9.5,0-14.1,0
		c-14.3,0-24.6,12.8-21.5,26.7c2.3,10.6,12.7,18,23.2,16.6C218.5,124.7,218.5,122.3,218.5,119.7z M235.9,127.3c5,0,9.8,0,14.6,0
		c1.1,0,2.3,0,3.3-0.2c9.7-1.5,17.5-9.9,18.2-19.5c0.7-10.6-5.4-19.8-15.2-22.9c-2.7-0.8-5.5-1.3-8.4-0.8c0,2.6,0,5,0,7.4
		c1.2,0.1,2.1,0.1,3.1,0.2c6.5,0.6,11.5,5.3,12.7,11.8c1.1,5.8-2.3,12-7.9,14.8c-4,2-8.2,1.3-12.7,1.4c0-7.9,0-15.5,0-23.2
		c0-7.7,0-15.3,0-23.1c-2.7,0-5.2,0-7.8,0C235.9,91.3,235.9,109.2,235.9,127.3z"/>
	<path class="st2" d="M97.3,230.9c4.1,0,8.3,0,12.6,0c0,1.9,0,3.6,0,5.6c-0.5,0-0.9,0.1-1.4,0.1c-8.9,0-17.7,0.1-26.6,0
		c-14-0.1-25-8.9-27.5-22.4c-3.6-19.7,12-35.1,30.7-33c11.1,1.3,21.7,9.4,23.9,22.4C110.9,214.1,107,225,97.3,230.9z M81.9,187.2
		c-11.8,0-20.9,9.4-20.9,21.5c0,12.2,9.1,21.7,20.8,21.7c11.7,0,20.9-9.6,20.8-21.7C102.5,196.6,93.4,187.2,81.9,187.2z"/>
	<path class="st2" d="M233.1,236.4c0-18,0-35.8,0-54c1.2,0,2.3,0,3.4,0c6,0.1,12,0.2,17.9,0.4c1.6,0.1,3.3,0.6,4.8,1.2
		c5,2,8,5.6,8.2,11.2c0.1,5.7-2.4,9.6-7.5,11.9c-0.3,0.1-0.6,0.3-0.8,0.5c-0.1,0-0.1,0.1-0.1,0.2c1.5,0.6,3.1,1,4.5,1.8
		c4.6,2.6,6.7,6.7,6.7,11.9c0,5.5-2.5,9.5-7.3,12c-3.6,1.9-7.5,2.6-11.5,2.7C245.4,236.6,239.4,236.4,233.1,236.4z M239.6,230.4
		c0.9,0,1.6,0,2.3,0c3.4,0,6.7,0.1,10.1-0.1c2.9-0.1,5.7-0.9,8-2.7c1.9-1.5,2.9-3.3,3.1-5.7c0.4-6-3.3-9.4-8.1-10
		c-5-0.6-10.1-0.6-15.4-0.8C239.6,217.7,239.6,223.9,239.6,230.4z M239.7,188.4c0,6,0,11.4,0,17.2c4.5-0.2,8.8-0.2,13.1-0.6
		c4.8-0.5,7.6-3.6,7.8-8.2c0.1-4-2.3-7.1-7-7.7C249,188.5,244.3,188.6,239.7,188.4z"/>
	<path class="st2" d="M360.9,218.1c0,6.4,0,12.3,0,18.3c-2,0-3.9,0-6,0c0-17.8,0-35.7,0-53.8c1.8,0,3.8,0,5.9,0c0,11,0,22,0,33.5
		c1.4-1.3,2.5-2.2,3.5-3.3c3.8-3.7,7.6-7.3,11.4-11c0.8-0.8,1.7-1.3,2.9-1.3c2.1,0.1,4.3,0,7,0c-6,5.7-11.6,11-17.2,16.3
		c6.3,6.5,12.5,12.8,19,19.5c-3.1,0-5.7,0.1-8.3-0.1c-0.7,0-1.5-0.8-2.1-1.4c-4.9-5.1-9.8-10.3-14.6-15.5
		C362.1,219.2,361.7,218.9,360.9,218.1z"/>
	<path class="st2" d="M212.7,217c3.3,3.3,6.3,6.5,9.4,9.6c3.1,3.1,6.1,6.3,9.6,9.9c-3.2,0-5.9,0.1-8.6-0.1c-0.6,0-1.1-0.8-1.6-1.3
		c-4.8-5.1-9.6-10.2-14.4-15.4c-0.4-0.5-0.6-1.1-1-1.7c-0.3,0.2-0.5,0.3-0.8,0.5c0,5.9,0,11.8,0,17.8c-2.1,0-3.9,0-5.9,0
		c0-17.9,0-35.8,0-53.9c1.9,0,3.8,0,5.9,0c0,5.6,0,11.1,0,16.6c0,5.4,0,10.8,0,16.9c1.4-1.3,2.5-2.3,3.5-3.2
		c3.8-3.7,7.6-7.3,11.3-11c0.9-0.9,1.7-1.2,3-1.2c2.1,0.1,4.3,0,7,0C224,206.3,218.5,211.5,212.7,217z"/>
	<path class="st2" d="M311,218.7c-0.1,11-8,18.8-19.3,18.7c-11,0-19.1-8.1-19-18.9c0.1-11,8.3-18.9,19.4-18.8
		C303.1,199.9,311,207.8,311,218.7z M304.3,221c0-8.6-3.4-13.6-8.8-15c-5.9-1.6-11.8,0.7-14.6,5.8c-3,5.4-1.9,13.1,2.6,17
		c4.1,3.5,8.8,4.1,13.6,1.9C302.2,228.4,304.3,224.1,304.3,221z"/>
	<path class="st2" d="M351.8,218.7c0,11-7.9,18.7-19,18.7c-11.2,0-19.2-7.9-19.2-18.9c0.1-10.9,8.1-18.8,19.1-18.8
		C343.9,199.7,351.8,207.6,351.8,218.7z M345.3,218.6c-0.1-7.8-5.3-13.2-12.8-13.1c-7.1,0.1-12.4,5.6-12.4,13.1
		c0,7.6,5.5,13.4,12.7,13.3C340.1,231.7,345.3,226.2,345.3,218.6z"/>
	<path class="st2" d="M114.9,200.8c2.2,0,4,0,6,0c0,0.9,0.1,1.6,0.1,2.4c0,6.2,0,12.3,0,18.5c0,0.9,0,1.8,0.2,2.6
		c0.5,3.2,1.5,6,4.9,7c3.8,1.1,7.3,0.6,10.3-2.2c3-2.8,3.6-6.5,3.7-10.3c0.1-5.4,0-10.7,0-16.1c0-0.6,0-1.1,0-1.9c2,0,3.8,0,6,0
		c0,11.8,0,23.5,0,35.5c-1.6,0-3.4,0-5.4,0c0-1.7,0-3.3,0-5c-0.2-0.2-0.5-0.3-0.7-0.5c-0.1,0.4-0.1,0.8-0.3,1
		c-4.8,6.6-13.5,6.3-18.1,3.9c-4.2-2.1-6.1-5.8-6.4-10.3c-0.3-6.1-0.2-12.3-0.3-18.4C114.9,205.1,114.9,203.1,114.9,200.8z"/>
	<path class="st2" d="M384.8,230.6c1.5-1.2,3-2.3,4.6-3.6c0.8,0.8,1.6,1.6,2.4,2.3c3.4,2.9,7.2,3.1,11.2,1.5c2-0.8,3.3-2.2,3.3-4.5
		c0-2.2-1.4-3.6-3.3-4.3c-2.1-0.7-4.3-1.2-6.4-1.8c-1.9-0.6-3.9-1.1-5.6-1.9c-6.5-3.1-5.7-11.3-2-14.8c4.8-4.5,14.4-5.1,19.6-1.1
		c0.6,0.4,1.1,0.9,1.6,1.5c0.6,0.7,1,1.4,1.7,2.3c-1.7,1.1-3.3,2.2-5,3.4c-2.1-2.9-4.7-4.7-8.2-4.2c-1.6,0.2-3.3,0.7-4.6,1.7
		c-2.5,1.8-2.2,4.8,0.6,6.1c2.2,1,4.7,1.5,7,2.2c1.9,0.6,3.9,1,5.7,1.8c7.5,3.1,6.7,12.9,2.4,16.6c-6.5,5.6-19.5,4.4-24.6-2.5
		C385.1,231.2,385,230.9,384.8,230.6z"/>
	<path class="st2" d="M190.9,227.3c1.7,1.6,3,2.9,4.4,4.2c-3.7,6.2-17,8.5-24.9,2.4c-8.2-6.3-9.5-20.2-2.4-28.1
		c7.6-8.5,21.8-7.2,27.7-0.2c-1.5,1.4-3,2.7-4.6,4.2c-0.4-0.4-0.9-0.7-1.2-1.1c-6.5-6.1-16.6-3.5-19.1,5.1c-1.2,4.2-1,8.2,1.2,12.1
		c4.4,7.9,14.5,7.2,18.3,2.4C190.4,228,190.6,227.7,190.9,227.3z"/>
	<path class="st3" d="M66.5,171.3c0-3.4,0-6.5,0-9.6c0-3.4,0-6.7,0-10.1c0-2.7,0.1-2.8,2.9-2.8c1.3,0,2.7-0.1,2.7,1.9
		c2.6-1.7,5.1-2.5,7.9-2.4c3.5,0.2,5.7,2,6.4,5.4c0.3,1.8,0.3,3.7,0.3,5.5c0,3.3,0,6.6,0,9.8c0,2.3-0.2,2.4-2.5,2.5
		c-0.4,0-0.8,0-1.2,0c-1.5,0.1-2.1-0.6-2.1-2.1c0.1-3.7,0-7.4,0-11c0-4.6-2.2-6-6.4-4.2c-1.5,0.7-2.4,1.6-2.3,3.4
		c0.2,3.7,0.1,7.5,0,11.3c0,2.4-0.2,2.6-2.6,2.6C68.8,171.5,67.8,171.4,66.5,171.3z"/>
	<path class="st3" d="M131,171.5c-0.5,0-4.1,0.1-4.7,0.1c-0.6,0-0.5-1.2-0.5-1.2s-4.9,1.3-7.3,1.4c-4.1,0.2-6.7-1.9-6.9-6
		c-0.3-5.2-0.2-10.4-0.1-15.6c0-0.5,0.6-1.2,1-1.3c1.2-0.2,2.4-0.2,3.6-0.1c1,0.1,1.1,1,1.1,1.8c0,3.6,0,7.2,0,10.8
		c0,0.9,0,1.8,0.1,2.6c0.2,1.5,1.1,2.6,2.6,2.7c2,0.2,3.8-0.5,5.3-1.8c0.5-0.4,0.6-1.4,0.6-2.2c0.1-3.8,0-7.7,0-11.5
		c0-2.4,0.1-2.5,2.6-2.5c0.5,0,1,0,1.4,0c1,0,1.7,0.5,1.7,1.6c0,6.6,0,13.2-0.1,19.9C131.3,170.6,131.5,171.5,131,171.5z"/>
	<path class="st2" d="M152.5,200.8c1.9,0,3.7,0,5.7,0c0,11.8,0,23.7,0,35.6c-1.9,0-3.7,0-5.7,0C152.5,224.6,152.5,212.8,152.5,200.8
		z"/>
	<path class="st3" d="M152.7,171.2c0-5.8,0-11.4,0-17.2c-1.6,0-3,0-4.5,0c-1.3,0.1-1.9-0.5-1.8-1.8c0.1-0.9,0-1.9,0-3.1
		c6.1,0,12,0,18.1,0c0,1.6,0,3.1,0,4.8c-2,0-3.9,0-6.1,0c0,5.8,0,11.5,0,17.3C156.4,171.2,154.7,171.2,152.7,171.2z"/>
	<path class="st3" d="M95.5,154c-1.8,0-3.1,0-4.5,0c-1.2,0-1.8-0.4-1.8-1.7c0-0.7-0.2-1.5,0.1-2.1c0.2-0.5,0.8-1.3,1.3-1.3
		c5.4-0.1,10.8,0,16.3,0.1c0.1,0,0.3,0.2,0.5,0.3c0,1.4,0,2.9,0,4.6c-2,0-3.9,0-6.1,0c0,5.9,0,11.5,0,16.9c-0.4,0.3-0.5,0.4-0.7,0.5
		c-5.1,0.7-5.1,0.6-5.1-4.4c0-3.5,0-7,0-10.5C95.5,155.6,95.5,154.8,95.5,154z"/>
	<path class="st3" d="M142.5,148.9c0,7.7,0,14.9,0,22.5c-1.5,0-2.9,0-4.3,0c-1.1,0-1.3-0.8-1.3-1.7c0-6.4,0-12.8,0-19.2
		c0-1.2,0.6-1.7,1.8-1.7C139.8,148.9,141.1,148.9,142.5,148.9z"/>
	<path class="st3" d="M55.1,160.1c0-3,0.1-6.1,0-9.1c0-1.5,0.4-2.1,2-2.2c3.8-0.1,3.8-0.2,3.8,3.7c0,5.4,0,10.8,0,16.3
		c0,2.6,0,2.6-2.7,2.6c-0.2,0-0.3,0-0.5,0c-2.5,0-2.6-0.1-2.6-2.5C55.1,166,55.1,163,55.1,160.1z"/>
	<path class="st3" d="M98.6,139.3c1.9,0,3.5,1.8,3.4,3.6c-0.1,1.9-1.8,3.4-3.7,3.3c-1.8-0.1-3.3-1.7-3.3-3.5
		C95,140.9,96.7,139.2,98.6,139.3z"/>
	<path class="st3" d="M158.9,142.8c0,2-1.5,3.5-3.5,3.5c-1.8,0-3.3-1.5-3.3-3.4c0-1.9,1.5-3.6,3.4-3.6
		C157.4,139.2,158.9,140.8,158.9,142.8z"/>
	<path class="st2" d="M422.7,228.5c-2.8,0-5,2.3-5,5c0,2.8,2.3,5,5,5c2.8,0,5-2.3,5-5C427.8,230.7,425.5,228.5,422.7,228.5z
		 M422.7,237.8c-2.3,0-4.2-1.9-4.2-4.2s1.9-4.2,4.2-4.2s4.2,1.9,4.2,4.2S425.1,237.8,422.7,237.8z"/>
	<g>
		<path class="st2" d="M421,230.2c0.4-0.1,1-0.1,1.6-0.1c0.9,0,1.5,0.2,1.9,0.5c0.3,0.3,0.5,0.7,0.5,1.2c0,0.8-0.5,1.4-1.2,1.6v0
			c0.5,0.2,0.8,0.6,0.9,1.3c0.2,0.9,0.4,1.5,0.5,1.8h-0.9c-0.1-0.2-0.2-0.7-0.4-1.5c-0.2-0.9-0.5-1.2-1.3-1.2h-0.8v2.8H421V230.2z
			 M421.8,233.1h0.8c0.9,0,1.5-0.5,1.5-1.2c0-0.8-0.6-1.2-1.5-1.2c-0.4,0-0.7,0-0.8,0.1V233.1z"/>
	</g>
</g>
</svg>
