<?xml version="1.0" encoding="utf-8"?>
<!-- Generator: Adobe Illustrator 19.2.1, SVG Export Plug-In . SVG Version: 6.00 Build 0)  -->
<!DOCTYPE svg PUBLIC "-//W3C//DTD SVG 1.1//EN" "http://www.w3.org/Graphics/SVG/1.1/DTD/svg11.dtd">
<svg version="1.1" id="Layer_1" xmlns="http://www.w3.org/2000/svg" xmlns:xlink="http://www.w3.org/1999/xlink" x="0px" y="0px"
	 viewBox="0 0 850.4 850.4" style="enable-background:new 0 0 850.4 850.4;" xml:space="preserve">
<style type="text/css">
	.st0{clip-path:url(#SVGID_2_);fill:#00B7E3;}
	.st1{clip-path:url(#SVGID_2_);fill:#FFFFFF;}
</style>
<g>
	<defs>
		<rect id="SVGID_1_" y="0" width="850.4" height="850.4"/>
	</defs>
	<clipPath id="SVGID_2_">
		<use xlink:href="#SVGID_1_"  style="overflow:visible;"/>
	</clipPath>
	<path class="st0" d="M425.9,719.3c162.3,0,293.9-131.6,293.9-293.9c0-162.3-131.6-293.9-293.9-293.9
		C263.6,131.5,132,263.1,132,425.4C132,587.7,263.6,719.3,425.9,719.3"/>
	<path class="st1" d="M272.7,424.5l50.2-50.3c1.7-1.7,2.6-3.9,2.6-6.3c0-5-4-9-9-9c-2.4,0-4.7,0.9-6.4,2.7c0,0-50.1,50.1-50.1,50.1
		l-50.3-50.2c-1.7-1.7-4-2.6-6.3-2.6c-5,0-9,4-9,9c0,2.4,1,4.7,2.7,6.4l50.2,50.1L197,474.7c-1.8,1.7-2.7,4-2.7,6.4c0,5,4,9,9,9
		c2.4,0,4.6-0.9,6.3-2.6l50.3-50.2l50.1,50c1.8,1.8,4.1,2.8,6.5,2.8c5,0,9-4,9-9c0-2.4-0.9-4.6-2.6-6.3L272.7,424.5z"/>
	<path class="st1" d="M570.9,424.5c0,9,7.3,16.3,16.3,16.3c9,0,16.3-7.3,16.3-16.3c0-9-7.3-16.3-16.3-16.3
		C578.2,408.2,570.9,415.5,570.9,424.5"/>
	<path class="st1" d="M539.9,424.5c0-26.1,21.2-47.3,47.3-47.3c26.1,0,47.3,21.2,47.3,47.3c0,26.1-21.2,47.3-47.3,47.3
		C561.1,471.8,539.9,450.6,539.9,424.5 M521.3,424.5c0,36.3,29.6,65.9,65.9,65.9c36.3,0,65.9-29.6,65.9-65.9
		c0-36.3-29.6-65.9-65.9-65.9C550.9,358.6,521.3,388.2,521.3,424.5"/>
	<path class="st1" d="M516.6,359.8l-2.8,0c-8.3,0-16.3,2.6-23,7.8c-0.9-4-4.5-7.1-8.8-7.1c-4.9,0-8.9,4-8.9,8.9c0,0,0,111,0,111
		c0,4.9,4,9,9,9c4.9,0,9-4,9-9c0,0,0-68.3,0-68.3c0-22.7,2.1-31.9,21.6-34.4c1.8-0.2,3.8-0.2,3.8-0.2c5.3-0.2,9.1-3.8,9.1-8.8
		C525.7,363.8,521.6,359.8,516.6,359.8"/>
	<path class="st1" d="M344.1,413.7c0-0.2,0-0.5,0-0.8c5.2-20.6,23.9-35.9,46.1-35.9c22.5,0,41.4,15.6,46.3,36.6H344.1z M455,412
		c-3.9-18.3-13.9-33.4-29.2-43.1c-22.3-14.2-51.9-13.4-73.4,1.9c-17.6,12.5-27.8,33-27.8,54.1c0,5.3,0.6,10.6,2,15.9
		c6.6,26.2,29.1,45.9,55.9,49.2c8,1,15.7,0.5,23.7-1.6c6.9-1.7,13.6-4.5,19.7-8.4c6.4-4.1,11.7-9.5,16.9-16c0.1-0.1,0.2-0.2,0.3-0.4
		c3.6-4.4,2.9-10.8-1-13.8c-3.3-2.5-8.9-3.6-13.3,2c-0.9,1.3-2,2.7-3.2,4.1c-3.5,3.9-7.8,7.6-13,10.5c-6.6,3.5-14.1,5.5-22.1,5.6
		c-26.1-0.3-40.1-18.5-45.1-31.6c-0.9-2.4-1.5-5-2-7.5c-0.1-0.5-0.1-1-0.1-1.4c5.4,0,93.8,0,93.8,0C450,431.4,456.9,422.4,455,412"
		/>
</g>
</svg>
